<svg width="72" height="72" viewBox="0 0 72 72" fill="none" xmlns="http://www.w3.org/2000/svg">
<rect width="72" height="72" rx="20" fill="#111111" fill-opacity="0.08"/>
<path fill-rule="evenodd" clip-rule="evenodd" d="M40.1253 18.5833C40.1253 18.4618 40.077 18.3452 39.9911 18.2592C39.9051 18.1733 39.7885 18.125 39.667 18.125H26.8337C25.4965 18.125 24.2142 18.6562 23.2687 19.6017C22.3232 20.5472 21.792 21.8295 21.792 23.1667V48.8333C21.792 50.1705 22.3232 51.4528 23.2687 52.3983C24.2142 53.3438 25.4965 53.875 26.8337 53.875H45.167C46.5041 53.875 47.7865 53.3438 48.732 52.3983C49.6775 51.4528 50.2087 50.1705 50.2087 48.8333V30.7695C50.2087 30.6479 50.1604 30.5314 50.0744 30.4454C49.9885 30.3595 49.8719 30.3112 49.7503 30.3112H41.5003C41.1357 30.3112 40.7859 30.1663 40.5281 29.9084C40.2702 29.6506 40.1253 29.3008 40.1253 28.9362V18.5833ZM41.5003 36.4583C41.865 36.4583 42.2147 36.6032 42.4726 36.8611C42.7305 37.1189 42.8753 37.4687 42.8753 37.8333C42.8753 38.198 42.7305 38.5477 42.4726 38.8056C42.2147 39.0635 41.865 39.2083 41.5003 39.2083H30.5003C30.1357 39.2083 29.7859 39.0635 29.5281 38.8056C29.2702 38.5477 29.1253 38.198 29.1253 37.8333C29.1253 37.4687 29.2702 37.1189 29.5281 36.8611C29.7859 36.6032 30.1357 36.4583 30.5003 36.4583H41.5003ZM41.5003 43.7917C41.865 43.7917 42.2147 43.9365 42.4726 44.1944C42.7305 44.4523 42.8753 44.802 42.8753 45.1667C42.8753 45.5313 42.7305 45.8811 42.4726 46.1389C42.2147 46.3968 41.865 46.5417 41.5003 46.5417H30.5003C30.1357 46.5417 29.7859 46.3968 29.5281 46.1389C29.2702 45.8811 29.1253 45.5313 29.1253 45.1667C29.1253 44.802 29.2702 44.4523 29.5281 44.1944C29.7859 43.9365 30.1357 43.7917 30.5003 43.7917H41.5003Z" fill="#111111" fill-opacity="0.6"/>
<path d="M42.875 19.1772C42.875 18.8398 43.2288 18.6253 43.491 18.8362C43.7128 19.0158 43.9127 19.2248 44.0832 19.4632L49.607 27.1577C49.7317 27.3337 49.596 27.561 49.3797 27.561H43.3333C43.2118 27.561 43.0952 27.5127 43.0092 27.4268C42.9233 27.3408 42.875 27.2242 42.875 27.1027V19.1772Z" fill="#111111" fill-opacity="0.6"/>
</svg>
