<svg width="44" height="44" viewBox="0 0 44 44" fill="none" xmlns="http://www.w3.org/2000/svg">
<rect width="44" height="44" rx="22" fill="white"/>
<g clip-path="url(#clip0_59_96)">
<path fill-rule="evenodd" clip-rule="evenodd" d="M22 14C22.855 14 23.732 14.022 24.582 14.058L25.586 14.106L26.547 14.163L27.447 14.224L28.269 14.288C29.161 14.3563 30.0004 14.7369 30.6395 15.363C31.2786 15.9891 31.6764 16.8205 31.763 17.711L31.803 18.136L31.878 19.046C31.948 19.989 32 21.017 32 22C32 22.983 31.948 24.011 31.878 24.954L31.803 25.864C31.79 26.01 31.777 26.151 31.763 26.289C31.6764 27.1796 31.2784 28.0112 30.6391 28.6373C29.9999 29.2634 29.1602 29.6439 28.268 29.712L27.448 29.775L26.548 29.837L25.586 29.894L24.582 29.942C23.7218 29.9794 22.861 29.9987 22 30C21.139 29.9987 20.2782 29.9794 19.418 29.942L18.414 29.894L17.453 29.837L16.553 29.775L15.731 29.712C14.839 29.6437 13.9996 29.2631 13.3605 28.637C12.7214 28.0109 12.3236 27.1795 12.237 26.289L12.197 25.864L12.122 24.954C12.0455 23.9711 12.0048 22.9858 12 22C12 21.017 12.052 19.989 12.122 19.046L12.197 18.136C12.21 17.99 12.223 17.849 12.237 17.711C12.3235 16.8207 12.7212 15.9894 13.3601 15.3633C13.999 14.7373 14.8381 14.3565 15.73 14.288L16.551 14.224L17.451 14.163L18.413 14.106L19.417 14.058C20.2775 14.0206 21.1387 14.0013 22 14ZM20 19.575V24.425C20 24.887 20.5 25.175 20.9 24.945L25.1 22.52C25.1914 22.4674 25.2673 22.3916 25.3201 22.3003C25.3729 22.209 25.4007 22.1055 25.4007 22C25.4007 21.8945 25.3729 21.791 25.3201 21.6997C25.2673 21.6084 25.1914 21.5326 25.1 21.48L20.9 19.056C20.8088 19.0033 20.7053 18.9756 20.5999 18.9756C20.4945 18.9756 20.3911 19.0034 20.2998 19.0561C20.2086 19.1088 20.1329 19.1846 20.0802 19.2759C20.0276 19.3671 19.9999 19.4706 20 19.576V19.575Z" fill="#FF0000"/>
</g>
<defs>
<clipPath id="clip0_59_96">
<rect width="24" height="24" fill="white" transform="translate(10 10)"/>
</clipPath>
</defs>
</svg>
