<svg width="28" height="28" viewBox="0 0 28 28" fill="none" xmlns="http://www.w3.org/2000/svg">
<g clip-path="url(#clip0_59_260)">
<path fill-rule="evenodd" clip-rule="evenodd" d="M0 10.736C0.295325 7.91774 1.57732 5.29458 3.61946 3.33003C5.6616 1.36548 8.33242 0.185998 11.16 0C11.0916 0.0552747 11.0293 0.117621 10.974 0.186C8.51854 3.2053 6.98473 6.86797 6.556 10.736H0ZM7.304 17.82C7.304 17.908 7.308 17.996 7.314 18.082V23.074C5.32447 22.2411 3.59566 20.8882 2.30882 19.1573C1.02198 17.4264 0.224505 15.3811 0 13.236H6.556C6.702 14.556 6.976 15.856 7.376 17.114C7.32828 17.3456 7.30415 17.5835 7.304 17.82ZM9.074 13.24H12.574L9.414 14.608C9.37976 14.6228 9.34575 14.6381 9.312 14.654C9.21294 14.1854 9.13287 13.713 9.072 13.238L9.074 13.24ZM23.894 10.74H17.33C16.903 6.87008 15.3698 3.2052 12.914 0.184C12.858 0.116225 12.795 0.0545503 12.726 0C15.555 0.184182 18.2277 1.36286 20.2715 3.32758C22.3153 5.2923 23.5984 7.91647 23.894 10.736V10.74ZM9.074 10.74H14.814C14.4668 7.99742 13.484 5.37379 11.944 3.078C10.4043 5.3732 9.42154 7.99812 9.074 10.74ZM19.3 13.42C19.163 13.3607 19.0153 13.3301 18.866 13.3301C18.7167 13.3301 18.569 13.3607 18.432 13.42L10.484 16.864C10.4014 16.8996 10.3234 16.9453 10.252 17C10.0401 17.1186 9.86366 17.2916 9.74095 17.5011C9.61825 17.7107 9.55371 17.9492 9.554 18.192V24.248C9.554 24.61 9.69781 24.9572 9.9538 25.2132C10.2098 25.4692 10.557 25.613 10.919 25.613C11.281 25.613 11.6282 25.4692 11.8842 25.2132C12.1402 24.9572 12.284 24.61 12.284 24.248V19.648L18.432 22.31C18.71 22.43 19.024 22.43 19.3 22.31L27.248 18.868C27.4434 18.7833 27.6098 18.6434 27.7267 18.4653C27.8436 18.2873 27.9059 18.079 27.9059 17.866C27.9059 17.653 27.8436 17.4447 27.7267 17.2667C27.6098 17.0886 27.4434 16.9487 27.248 16.864L19.3 13.42ZM13.434 22.44L17.482 24.194C17.9186 24.3831 18.3893 24.4806 18.865 24.4806C19.3407 24.4806 19.8114 24.3831 20.248 24.194L24.296 22.44V25.156C24.296 25.396 24.22 25.628 24.076 25.816L23.206 25.156L24.074 25.818L24.072 25.822L24.068 25.826L24.06 25.838L24.036 25.868C23.9327 25.9915 23.8226 26.109 23.706 26.22C23.486 26.428 23.166 26.694 22.74 26.956C21.878 27.484 20.598 27.984 18.866 27.984C17.134 27.984 15.854 27.484 14.994 26.954C14.5434 26.6781 14.1329 26.3417 13.774 25.954C13.7488 25.9251 13.7241 25.8958 13.7 25.866L13.676 25.836L13.668 25.824L13.664 25.82V25.816H13.66C13.5171 25.6264 13.4399 25.3954 13.44 25.158L13.432 22.438L13.434 22.44Z" fill="#1FAD92"/>
</g>
<defs>
<clipPath id="clip0_59_260">
<rect width="28" height="28" fill="white"/>
</clipPath>
</defs>
</svg>
