<svg width="28" height="28" viewBox="0 0 28 28" fill="none" xmlns="http://www.w3.org/2000/svg">
<g clip-path="url(#clip0_59_251)">
<path d="M14 0.875C6.7515 0.875 0.875 6.7515 0.875 14C0.875 21.2476 6.7515 27.125 14 27.125C21.2485 27.125 27.125 21.2476 27.125 14C27.125 6.7515 21.2485 0.875 14 0.875ZM12.25 6.5625C12.25 6.125 12.6875 5.6875 13.125 5.6875H14.875C15.3125 5.6875 15.75 6.125 15.75 6.5625V8.3125C15.75 8.75 15.3125 9.1875 14.875 9.18662H13.125C12.6875 9.1875 12.25 8.75 12.25 8.3125V6.5625ZM16.625 15.75L15.75 11.8125V13.5625L16.625 17.5H15.75V22.3125H14.4375V17.5H13.5625V22.3125H12.25V17.5H11.375L12.25 13.5625V11.8125L11.375 15.75H10.0625L11.375 10.9375C11.375 10.5 11.8125 10.0625 12.25 10.0625H15.75C16.1875 10.0625 16.625 10.5 16.625 10.9375L17.9375 15.75H16.625Z" fill="#1FAD92"/>
</g>
<defs>
<clipPath id="clip0_59_251">
<rect width="28" height="28" fill="white"/>
</clipPath>
</defs>
</svg>
