<svg width="28" height="28" viewBox="0 0 28 28" fill="none" xmlns="http://www.w3.org/2000/svg">
<path fill-rule="evenodd" clip-rule="evenodd" d="M16.8 3.73333H14.9333V0H13.0667V3.73333H11.2C8.22958 3.73333 5.38081 4.91333 3.2804 7.01374C1.18 9.11415 0 11.9629 0 14.9333C0 17.9038 1.18 20.7525 3.2804 22.8529C5.38081 24.9533 8.22958 26.1333 11.2 26.1333H16.8C17.0427 26.1333 17.2853 26.1259 17.5261 26.1091L24.9741 27.972C25.1304 28.0109 25.2941 28.0087 25.4492 27.9657C25.6044 27.9226 25.7458 27.8402 25.8596 27.7263C25.9735 27.6124 26.056 27.471 26.099 27.3159C26.1421 27.1607 26.1442 26.9971 26.1053 26.8408L25.0283 22.5307C26.505 20.9311 27.4836 18.9358 27.8442 16.7889C28.2049 14.642 27.9321 12.4364 27.0591 10.4421C26.1861 8.44782 24.7508 6.75115 22.9288 5.55966C21.1068 4.36818 18.977 3.73352 16.8 3.73333ZM9.33333 12.1333C9.33333 10.8957 9.825 9.70867 10.7002 8.8335C11.5753 7.95833 12.7623 7.46667 14 7.46667C15.2377 7.46667 16.4247 7.95833 17.2998 8.8335C18.175 9.70867 18.6667 10.8957 18.6667 12.1333C18.6667 13.371 18.175 14.558 17.2998 15.4332C16.4247 16.3083 15.2377 16.8 14 16.8C12.7623 16.8 11.5753 16.3083 10.7002 15.4332C9.825 14.558 9.33333 13.371 9.33333 12.1333ZM14 22.4C12.0908 22.4029 10.238 21.7528 8.74907 20.5576L9.9176 19.1016C11.0357 19.9976 12.4544 20.5333 14 20.5333C15.5456 20.5333 16.9643 19.9976 18.0824 19.1016L19.2509 20.5576C17.762 21.7528 15.9092 22.4029 14 22.4Z" fill="#1FAD92"/>
</svg>
