<svg width="28" height="28" viewBox="0 0 28 28" fill="none" xmlns="http://www.w3.org/2000/svg">
<g clip-path="url(#clip0_59_212)">
<path fill-rule="evenodd" clip-rule="evenodd" d="M20.4261 5.07598C18.6431 3.79274 16.5168 3.07281 14.321 3.00897C12.1252 2.94514 9.96065 3.54031 8.10619 4.7178C6.25173 5.89529 4.79237 7.60114 3.91617 9.61553C3.03996 11.6299 2.78707 13.8606 3.19006 16.02C3.25646 16.4079 3.1677 16.8064 2.94294 17.1296C2.71818 17.4527 2.37542 17.6745 1.9886 17.7472C1.60177 17.8199 1.20186 17.7376 0.875137 17.5182C0.548409 17.2987 0.321039 16.9596 0.242064 16.574C-0.279125 13.7847 0.0596881 10.9029 1.21359 8.31055C2.36749 5.71821 4.28199 3.53776 6.70331 2.05825C9.12462 0.578742 11.9384 -0.129968 14.7717 0.0260691C17.6049 0.182106 20.3239 1.19552 22.5681 2.93198L23.7921 1.70798C23.9318 1.56788 24.11 1.4724 24.304 1.4336C24.498 1.3948 24.6992 1.41444 24.8821 1.49003C25.0649 1.56561 25.2213 1.69375 25.3313 1.85822C25.4413 2.02269 25.5 2.21611 25.5001 2.41398V6.99998C25.5001 7.26519 25.3947 7.51955 25.2072 7.70708C25.0196 7.89462 24.7653 7.99998 24.5001 7.99998H19.9141C19.7166 7.99954 19.5237 7.94065 19.3596 7.83074C19.1956 7.72083 19.0678 7.56482 18.9923 7.38236C18.9168 7.19991 18.897 6.99918 18.9354 6.80549C18.9738 6.6118 19.0687 6.43382 19.2081 6.29398L20.4261 5.07598ZM26.0081 10.23C26.399 10.1562 26.8032 10.2408 27.1318 10.4651C27.4603 10.6894 27.6863 11.035 27.7601 11.426C28.2817 14.2156 27.9431 17.0979 26.7891 19.6906C25.6352 22.2834 23.7204 24.4642 21.2987 25.9438C18.877 27.4234 16.0627 28.132 13.229 27.9756C10.3954 27.8192 7.67622 26.8052 5.43206 25.068L4.20806 26.294C4.0682 26.4342 3.88986 26.5297 3.69565 26.5685C3.50143 26.6072 3.30008 26.5874 3.11714 26.5115C2.93419 26.4357 2.77788 26.3073 2.66802 26.1425C2.55817 25.9777 2.49971 25.784 2.50006 25.586V21C2.50006 20.7348 2.60542 20.4804 2.79296 20.2929C2.98049 20.1053 3.23485 20 3.50006 20H8.08606C8.28411 19.9996 8.47779 20.0581 8.64257 20.1679C8.80735 20.2778 8.9358 20.4341 9.01163 20.6171C9.08747 20.8 9.10727 21.0013 9.06854 21.1956C9.02981 21.3898 8.93428 21.5681 8.79406 21.708L7.57406 22.926C9.35698 24.2092 11.4833 24.9291 13.6791 24.993C15.8749 25.0568 18.0395 24.4616 19.8939 23.2842C21.7484 22.1067 23.2078 20.4008 24.084 18.3864C24.9602 16.372 25.2131 14.1414 24.8101 11.982C24.7736 11.7881 24.7757 11.589 24.8163 11.396C24.8569 11.2029 24.9352 11.0198 25.0467 10.8571C25.1581 10.6943 25.3006 10.5552 25.4659 10.4476C25.6312 10.34 25.8161 10.266 26.0101 10.23H26.0081ZM12.3621 8.06798C12.7421 6.32798 15.2161 6.31998 15.6121 8.05198L15.6321 8.13998C15.846 9.20479 16.3768 10.1801 17.1549 10.9378C17.933 11.6955 18.922 12.2004 19.9921 12.386C21.8001 12.7 21.8001 15.3 19.9901 15.614C18.9441 15.7959 17.9752 16.2829 17.2052 17.0138C16.4351 17.7447 15.8983 18.6869 15.6621 19.722L15.6121 19.948C15.2161 21.682 12.7421 21.67 12.3621 19.934L12.3201 19.74C12.0926 18.7014 11.561 17.7542 10.793 17.019C10.0251 16.2838 9.05553 15.794 8.00806 15.612C6.20206 15.298 6.20206 12.704 8.00806 12.39C9.05207 12.2082 10.0186 11.7205 10.7852 10.9888C11.5517 10.2572 12.0839 9.31438 12.3141 8.27998L12.3461 8.13798L12.3621 8.06798Z" fill="#1FAD92"/>
</g>
<defs>
<clipPath id="clip0_59_212">
<rect width="28" height="28" fill="white"/>
</clipPath>
</defs>
</svg>
