<svg width="28" height="28" viewBox="0 0 28 28" fill="none" xmlns="http://www.w3.org/2000/svg">
<path d="M4.66683 23.3332C4.02516 23.3332 3.47605 23.1049 3.0195 22.6483C2.56294 22.1918 2.33427 21.6423 2.3335 20.9998V15.1665H8.60433L10.6168 19.1915C10.7141 19.4054 10.8599 19.566 11.0543 19.6733C11.2488 19.7807 11.4529 19.8339 11.6668 19.8332C11.8807 19.8332 12.0849 19.7799 12.2793 19.6733C12.4738 19.5668 12.6196 19.4062 12.7168 19.1915L16.3335 11.9582L17.6168 14.5248C17.7141 14.7387 17.8599 14.8993 18.0543 15.0067C18.2488 15.114 18.4529 15.1673 18.6668 15.1665H25.6668V20.9998C25.6668 21.6415 25.4386 22.191 24.982 22.6483C24.5254 23.1057 23.9759 23.334 23.3335 23.3332H4.66683ZM2.3335 12.8332V6.99984C2.3335 6.35817 2.56216 5.80906 3.0195 5.3525C3.47683 4.89595 4.02594 4.66728 4.66683 4.6665H23.3335C23.9752 4.6665 24.5247 4.89517 24.982 5.3525C25.4393 5.80984 25.6676 6.35895 25.6668 6.99984V12.8332H19.396L17.3835 8.80817C17.2863 8.59428 17.1404 8.44378 16.946 8.35667C16.7516 8.26956 16.5474 8.22562 16.3335 8.22484C16.1196 8.22484 15.9154 8.26878 15.721 8.35667C15.5266 8.44456 15.3807 8.59506 15.2835 8.80817L11.6668 16.0415L10.3835 13.4748C10.2863 13.2609 10.1404 13.1003 9.946 12.993C9.75155 12.8857 9.54738 12.8324 9.3335 12.8332H2.3335Z" fill="#1FAD92"/>
</svg>
