<svg width="28" height="28" viewBox="0 0 28 28" fill="none" xmlns="http://www.w3.org/2000/svg">
<path d="M3.5 5.24987V13.9999C3.5 16.0384 4.02578 17.874 5.07733 19.5065C6.12889 21.1375 7.49894 22.3758 9.1875 23.2212C8.35294 22.5718 7.6825 21.7489 7.17617 20.7525C6.66983 19.7554 6.41667 18.6712 6.41667 17.4999C6.41667 16.4794 6.66089 15.31 7.14933 13.9917C7.63778 12.6734 8.36267 11.2154 9.324 9.61787L3.5 5.24987ZM14 4.91504C11.9521 7.38371 10.3709 9.73687 9.25633 11.9745C8.141 14.213 7.58333 16.0548 7.58333 17.4999C7.58333 19.2794 8.20789 20.7938 9.457 22.0429C10.7061 23.292 12.2204 23.9165 14 23.9165C15.7796 23.9165 17.2939 23.292 18.543 22.0429C19.7921 20.7938 20.4167 19.2794 20.4167 17.4999C20.4167 16.0548 19.8578 14.2071 18.7402 11.957C17.6233 9.70693 16.0432 7.35959 14 4.91504ZM24.5 5.24987L18.676 9.61787C19.6226 11.2007 20.3439 12.6551 20.8402 13.9812C21.3356 15.3065 21.5833 16.4794 21.5833 17.4999C21.5833 18.6712 21.3302 19.7554 20.8238 20.7525C20.3175 21.7497 19.6471 22.5725 18.8125 23.2212C20.5011 22.3758 21.8711 21.1371 22.9227 19.5054C23.9742 17.8736 24.5 16.0384 24.5 13.9999V5.24987Z" fill="#1FAD92"/>
</svg>
