<svg width="28" height="28" viewBox="0 0 28 28" fill="none" xmlns="http://www.w3.org/2000/svg">
<path d="M8.18652 4.68115C8.1209 4.68115 8.0498 4.68115 7.98418 4.68662C6.13027 4.73037 3.85527 5.27178 1.02246 6.52959V19.8405C4.34746 18.2655 6.85762 17.8116 8.9084 18.0304C9.65762 18.1069 10.3467 18.2765 10.9811 18.5007L8.51465 14.1913C8.04434 14.3827 7.53574 14.4921 6.9998 14.4921C4.80082 14.4921 3.00762 12.6983 3.00762 10.4999C3.00762 8.30146 4.80082 6.50771 6.9998 6.50771C9.19824 6.50771 10.992 8.30146 10.992 10.4999C10.992 11.8124 10.3521 12.9772 9.36777 13.7101L12.5014 19.1788C12.8404 19.3538 13.1631 19.5452 13.4803 19.7366V6.44756C12.2115 5.47959 10.735 4.80693 8.77715 4.69756C8.58574 4.68662 8.38887 4.68115 8.18652 4.68115ZM19.7803 4.68115C19.5779 4.68115 19.3756 4.68662 19.1842 4.69756C17.2264 4.80693 15.7553 5.47959 14.4811 6.44756V19.7366C15.7881 18.9382 17.2209 18.2218 19.0529 18.0304C21.1037 17.8116 23.6193 18.2655 26.9389 19.8405V6.52959C24.1115 5.27178 21.8365 4.73037 19.9826 4.68662C19.9115 4.68662 19.8459 4.68115 19.7803 4.68115ZM6.9998 7.49209C5.33293 7.49209 3.99199 8.83193 3.99199 10.4999C3.99199 12.1679 5.33293 13.5077 6.9998 13.5077C8.66777 13.5077 10.0076 12.1679 10.0076 10.4999C10.0076 8.83193 8.66777 7.49209 6.9998 7.49209ZM7.12559 8.25225H7.27871C5.96074 9.24756 5.37668 10.5546 5.45379 12.0913C4.02863 9.96943 5.52324 8.296 7.12559 8.25225ZM7.84199 18.9983C6.09199 19.0147 3.91543 19.5343 1.02246 20.9671V23.2913C4.34746 21.7163 6.85762 21.2624 8.9084 21.4812C9.92559 21.5905 10.817 21.8585 11.6318 22.2085C11.3748 22.5421 11.1232 22.9358 10.8717 23.3952H13.7865L11.8178 19.9663C10.91 19.5124 9.94199 19.1679 8.80449 19.0476C8.49824 19.0147 8.17559 18.9983 7.84199 18.9983ZM19.9225 18.9983C19.66 19.0038 19.4084 19.0202 19.1623 19.0476C17.3029 19.2444 15.9029 20.0319 14.4811 20.9288V20.9452C14.1475 20.8413 13.8084 20.8194 13.4803 20.8796L14.9186 23.3952H17.2811C16.9529 22.9468 16.6357 22.553 16.3131 22.214C17.1334 21.8585 18.0303 21.5905 19.0529 21.4812C21.1037 21.2624 23.6193 21.7163 26.9389 23.2913V20.9671C24.035 19.5288 21.8475 19.0038 20.092 18.9983H19.9225Z" fill="#1FAD92"/>
</svg>
