<svg width="24" height="25" viewBox="0 0 24 25" fill="none" xmlns="http://www.w3.org/2000/svg">
<path fill-rule="evenodd" clip-rule="evenodd" d="M12 12.708C12.2321 12.708 12.4546 12.8002 12.6187 12.9643C12.7828 13.1284 12.875 13.3509 12.875 13.583V14.458H13.75C13.9821 14.458 14.2046 14.5502 14.3687 14.7143C14.5328 14.8784 14.625 15.1009 14.625 15.333C14.625 15.5651 14.5328 15.7876 14.3687 15.9517C14.2046 16.1158 13.9821 16.208 13.75 16.208H12.875V17.083C12.875 17.3151 12.7828 17.5376 12.6187 17.7017C12.4546 17.8658 12.2321 17.958 12 17.958C11.7679 17.958 11.5454 17.8658 11.3813 17.7017C11.2172 17.5376 11.125 17.3151 11.125 17.083V16.208H10.25C10.0179 16.208 9.79538 16.1158 9.63128 15.9517C9.46719 15.7876 9.375 15.5651 9.375 15.333C9.375 15.1009 9.46719 14.8784 9.63128 14.7143C9.79538 14.5502 10.0179 14.458 10.25 14.458H11.125V13.583C11.125 13.3509 11.2172 13.1284 11.3813 12.9643C11.5454 12.8002 11.7679 12.708 12 12.708Z" fill="#1FAD92"/>
<path fill-rule="evenodd" clip-rule="evenodd" d="M11.9395 0.458008C10.8907 0.458008 10.0168 0.458008 9.32383 0.551341C8.59116 0.649341 7.92966 0.866341 7.39883 1.39717C6.86683 1.92917 6.64983 2.59067 6.55183 3.32217C6.4585 4.01634 6.4585 4.89134 6.4585 5.93901V6.03001C4.10066 6.10701 2.68433 6.38234 1.70083 7.36701C0.333496 8.73317 0.333496 10.9335 0.333496 15.333C0.333496 19.7325 0.333496 21.9328 1.70083 23.299C3.067 24.6663 5.26733 24.6663 9.66683 24.6663H14.3335C18.733 24.6663 20.9333 24.6663 22.2995 23.299C23.6668 21.9328 23.6668 19.7325 23.6668 15.333C23.6668 10.9335 23.6668 8.73317 22.2995 7.36701C21.316 6.38234 19.8997 6.10701 17.5418 6.03001V5.93901C17.5418 4.89134 17.5418 4.01634 17.4485 3.32334C17.3505 2.59067 17.1335 1.92917 16.6015 1.39834C16.0707 0.866341 15.4092 0.649341 14.6765 0.551341C13.9835 0.458008 13.1085 0.458008 12.0608 0.458008H11.9395ZM15.7918 6.00201V5.99967C15.7918 4.87501 15.7895 4.11901 15.7148 3.55551C15.6413 3.01767 15.5165 2.78667 15.3648 2.63501C15.2132 2.48334 14.9822 2.35851 14.4432 2.28501C13.8808 2.21034 13.1248 2.20801 12.0002 2.20801C10.8755 2.20801 10.1195 2.21034 9.556 2.28617C9.01816 2.35851 8.78716 2.48334 8.6355 2.63617C8.48383 2.78784 8.359 3.01767 8.2855 3.55551C8.212 4.11901 8.2085 4.87501 8.2085 5.99967V6.00201C8.66583 5.99967 9.15116 5.99967 9.66683 5.99967H14.3335C14.8492 5.99967 15.3345 5.99967 15.7918 6.00201ZM16.6668 15.333C16.6668 16.5707 16.1752 17.7577 15.3 18.6328C14.4248 19.508 13.2378 19.9997 12.0002 19.9997C10.7625 19.9997 9.5755 19.508 8.70033 18.6328C7.82516 17.7577 7.3335 16.5707 7.3335 15.333C7.3335 14.0953 7.82516 12.9083 8.70033 12.0332C9.5755 11.158 10.7625 10.6663 12.0002 10.6663C13.2378 10.6663 14.4248 11.158 15.3 12.0332C16.1752 12.9083 16.6668 14.0953 16.6668 15.333Z" fill="#1FAD92"/>
</svg>
