<svg width="48" height="48" viewBox="0 0 48 48" fill="none" xmlns="http://www.w3.org/2000/svg">
<rect width="48" height="48" rx="12" fill="#1FAD92" fill-opacity="0.12"/>
<path fill-rule="evenodd" clip-rule="evenodd" d="M26.8548 29.1065L33.6763 22.3049C34.6586 21.326 35.1498 20.836 35.4076 20.2142C35.6666 19.59 35.6666 18.8982 35.6666 17.5134V16.8519C35.6666 14.7215 35.6666 13.6564 35.0028 12.9949C34.339 12.3334 33.2715 12.3334 31.1353 12.3334H30.4703C29.082 12.3334 28.3878 12.3334 27.7636 12.5912C27.1383 12.849 26.6471 13.339 25.6636 14.3179L18.8433 21.1195C17.6953 22.2629 16.9836 22.9734 16.7083 23.6582C16.6224 23.8662 16.5781 24.0889 16.5776 24.3139C16.5776 25.2495 17.3325 26.0032 18.8433 27.5094L19.0463 27.7112L21.424 25.2974C21.5046 25.2155 21.6006 25.1503 21.7065 25.1055C21.8124 25.0607 21.926 25.0372 22.041 25.0363C22.1559 25.0355 22.2699 25.0573 22.3764 25.1004C22.4829 25.1436 22.5799 25.2074 22.6618 25.288C22.7437 25.3687 22.8089 25.4647 22.8537 25.5706C22.8985 25.6764 22.922 25.7901 22.9228 25.905C22.9237 26.02 22.9019 26.134 22.8587 26.2405C22.8155 26.347 22.7518 26.444 22.6711 26.5259L20.2853 28.9467L20.4451 29.1065C21.956 30.6115 22.712 31.3652 23.65 31.3652C23.8576 31.3652 24.056 31.329 24.2555 31.2555C24.959 30.9965 25.6776 30.2802 26.8548 29.1065ZM30.0596 21.1195C29.6341 21.5435 29.0579 21.7816 28.4572 21.7816C27.8565 21.7816 27.2803 21.5435 26.8548 21.1195C26.6445 20.9101 26.4776 20.6612 26.3638 20.3871C26.2499 20.113 26.1913 19.8192 26.1913 19.5224C26.1913 19.2256 26.2499 18.9317 26.3638 18.6576C26.4776 18.3835 26.6445 18.1346 26.8548 17.9252C27.2803 17.5012 27.8565 17.2632 28.4572 17.2632C29.0579 17.2632 29.6341 17.5012 30.0596 17.9252C30.2699 18.1346 30.4368 18.3835 30.5507 18.6576C30.6646 18.9317 30.7232 19.2256 30.7232 19.5224C30.7232 19.8192 30.6646 20.113 30.5507 20.3871C30.4368 20.6612 30.2699 20.9101 30.0596 21.1195Z" fill="#1FAD92"/>
<path opacity="0.5" d="M20.5396 16.9568L17.5727 19.9167C17.0279 20.4603 16.5274 20.9585 16.1319 21.41C15.8646 21.708 15.623 22.028 15.4097 22.3667L15.3817 22.3375L15.2709 22.2278C14.7548 21.7276 14.1483 21.3301 13.4836 21.0565L13.3401 20.9982L12.8979 20.8232C12.7602 20.7689 12.6382 20.6812 12.5429 20.5679C12.4476 20.4547 12.382 20.3195 12.352 20.1745C12.322 20.0296 12.3286 19.8794 12.3711 19.7377C12.4137 19.5959 12.4909 19.467 12.5957 19.3625C13.9024 18.0582 15.4716 16.4937 16.2299 16.1798C16.8882 15.9036 17.6092 15.8113 18.3159 15.9127C18.9529 16.0072 19.5549 16.335 20.5396 16.9568ZM25.6064 32.5318C25.8456 32.7745 26.0031 32.946 26.1477 33.1292C26.3367 33.3707 26.5059 33.6273 26.6541 33.8968C26.8197 34.2002 26.9492 34.5233 27.2071 35.1708C27.2579 35.2931 27.3381 35.4009 27.4404 35.4849C27.5428 35.5688 27.6643 35.6262 27.7942 35.652C27.924 35.6779 28.0582 35.6713 28.185 35.633C28.3117 35.5946 28.427 35.5257 28.5207 35.4322L28.6187 35.3353C29.9254 34.0322 31.4946 32.4677 31.8096 31.7128C32.0863 31.0571 32.1787 30.3382 32.0767 29.6338C31.9822 28.998 31.6544 28.3972 31.0302 27.4148L28.0529 30.3828C27.4952 30.9393 26.9842 31.4492 26.5211 31.8482C26.2446 32.0885 25.9412 32.3265 25.6064 32.5318Z" fill="#1FAD92"/>
</svg>
