<svg width="48" height="48" viewBox="0 0 48 48" fill="none" xmlns="http://www.w3.org/2000/svg">
<rect width="48" height="48" rx="12" fill="#1FAD92" fill-opacity="0.12"/>
<g clip-path="url(#clip0_59_155)">
<path d="M33.8647 14.1352L36.7977 14.7215C36.9552 14.753 37.0847 14.8685 37.1302 15.0242C37.1532 15.0999 37.1553 15.1803 37.1362 15.2571C37.1171 15.3338 37.0775 15.4039 37.0217 15.46L34.619 17.8645C34.3315 18.1514 33.9419 18.3125 33.5357 18.3125H31.5425L26.5375 23.3192C26.633 23.6798 26.6505 24.0565 26.589 24.4244C26.5275 24.7922 26.3883 25.1427 26.1806 25.4526C25.973 25.7624 25.7017 26.0244 25.3849 26.2212C25.0681 26.418 24.7129 26.545 24.3432 26.5937C23.9734 26.6425 23.5975 26.6119 23.2405 26.504C22.8834 26.3961 22.5535 26.2133 22.2727 25.9679C21.9918 25.7225 21.7665 25.42 21.6117 25.0807C21.4569 24.7414 21.3762 24.3729 21.375 24C21.3753 23.5973 21.4681 23.2 21.6464 22.8389C21.8246 22.4779 22.0835 22.1626 22.403 21.9175C22.7225 21.6724 23.0941 21.5041 23.4891 21.4255C23.884 21.3469 24.2917 21.3601 24.6807 21.4642L29.6875 16.4557V14.466C29.6875 14.06 29.8485 13.6697 30.1355 13.3827L32.54 10.9782C32.596 10.9224 32.6662 10.8829 32.7429 10.8638C32.8196 10.8447 32.9001 10.8467 32.9757 10.8697C33.1315 10.9152 33.247 11.0447 33.2785 11.2022L33.8647 14.1352Z" fill="#1FAD92"/>
<path d="M13.5002 24C13.502 25.5014 13.8258 26.985 14.4497 28.3507C15.0736 29.7164 15.9832 30.9323 17.117 31.9166C18.2508 32.9008 19.5825 33.6305 21.0223 34.0563C22.4621 34.4821 23.9764 34.5942 25.4632 34.385C26.95 34.1758 28.3746 33.6502 29.641 32.8436C30.9074 32.037 31.986 30.9682 32.8042 29.7093C33.6224 28.4503 34.1611 27.0306 34.3839 25.5458C34.6068 24.061 34.5086 22.5456 34.096 21.102C34.038 20.9334 34.015 20.7547 34.0284 20.5768C34.0417 20.399 34.0911 20.2258 34.1735 20.0676C34.2559 19.9095 34.3697 19.7698 34.5078 19.657C34.646 19.5442 34.8056 19.4608 34.9771 19.4116C35.1485 19.3625 35.3281 19.3489 35.505 19.3714C35.6819 19.3939 35.8524 19.4522 36.0061 19.5428C36.1597 19.6333 36.2933 19.7541 36.3988 19.8979C36.5042 20.0417 36.5793 20.2055 36.6195 20.3793C37.4184 23.1749 37.2666 26.1567 36.188 28.8568C35.1094 31.557 33.1649 33.8226 30.6597 35.2984C28.1544 36.7741 25.2302 37.3765 22.3457 37.0109C19.4612 36.6454 16.7796 35.3326 14.7217 33.2785C12.6661 31.2211 11.3519 28.5393 10.9855 25.6541C10.6191 22.769 11.2212 19.8438 12.6973 17.3379C14.1735 14.832 16.44 12.8873 19.1412 11.8091C21.8423 10.7308 24.825 10.5802 27.621 11.3808C27.9539 11.4781 28.2347 11.7032 28.4022 12.007C28.5696 12.3108 28.61 12.6685 28.5145 13.0019C28.419 13.3354 28.1954 13.6175 27.8925 13.7865C27.5896 13.9556 27.2322 13.9979 26.8982 13.9043C25.3347 13.4557 23.6884 13.3764 22.0891 13.6727C20.4897 13.969 18.981 14.6327 17.682 15.6116C16.3829 16.5904 15.329 17.8577 14.6033 19.3134C13.8776 20.7691 13.5 22.3735 13.5002 24Z" fill="#1FAD92"/>
<path d="M18.7499 24C18.75 24.9566 19.0112 25.8949 19.5054 26.7139C19.9997 27.5328 20.7081 28.2013 21.5544 28.6472C22.4006 29.0931 23.3525 29.2995 24.3075 29.2442C25.2624 29.1888 26.1841 28.8738 26.9731 28.333C27.762 27.791 28.3877 27.0435 28.7825 26.1715C29.1773 25.2996 29.3262 24.3363 29.2131 23.3858C29.1825 23.1551 29.214 22.9205 29.3042 22.706C29.3944 22.4916 29.5402 22.3051 29.7265 22.1657C29.9128 22.0263 30.1328 21.939 30.364 21.9129C30.5952 21.8869 30.8292 21.9229 31.0419 22.0173C31.2545 22.1105 31.4386 22.2584 31.5754 22.4459C31.7122 22.6334 31.7968 22.8539 31.8206 23.0848C32.0108 24.709 31.6906 26.352 30.9045 27.786C30.1184 29.2199 28.9055 30.3736 27.434 31.0869C25.9625 31.8002 24.3054 32.0377 22.6928 31.7664C21.0802 31.4952 19.592 30.7286 18.4348 29.5732C17.2776 28.4178 16.5088 26.9307 16.2351 25.3185C15.9614 23.7063 16.1964 22.0489 16.9074 20.5763C17.6185 19.1037 18.7703 17.889 20.203 17.1008C21.6358 16.3125 23.2784 15.9899 24.9029 16.1775C25.0768 16.1937 25.2458 16.2444 25.3999 16.3267C25.554 16.409 25.6901 16.5212 25.8002 16.6567C25.9104 16.7923 25.9924 16.9485 26.0414 17.1162C26.0904 17.2839 26.1054 17.4596 26.0856 17.6332C26.0658 17.8068 26.0116 17.9746 25.9261 18.127C25.8405 18.2793 25.7255 18.413 25.5876 18.5203C25.4497 18.6276 25.2919 18.7062 25.1232 18.7517C24.9545 18.7972 24.7785 18.8085 24.6054 18.785C23.8698 18.6996 23.1244 18.7708 22.4183 18.9939C21.7121 19.217 21.0612 19.5869 20.5082 20.0795C19.9552 20.572 19.5126 21.1759 19.2096 21.8516C18.9065 22.5273 18.7499 23.2595 18.7499 24Z" fill="#1FAD92"/>
</g>
<defs>
<clipPath id="clip0_59_155">
<rect width="28" height="28" fill="white" transform="translate(10 10)"/>
</clipPath>
</defs>
</svg>
